<mxfile host="app.diagrams.net" modified="2023-04-14T10:56:44.192Z" agent="Mozilla/5.0 (Windows NT 10.0; Win64; x64) AppleWebKit/537.36 (KHTML, like Gecko) Chrome/112.0.0.0 Safari/537.36" etag="vDdX3IRUoeBnAddmXx-u" version="21.1.7" type="device">
  <diagram name="PÃ¡gina-1" id="ZkmpgATiny-0FFApnRNF">
    <mxGraphModel dx="1434" dy="788" grid="1" gridSize="10" guides="1" tooltips="1" connect="1" arrows="1" fold="1" page="1" pageScale="1" pageWidth="827" pageHeight="1169" math="0" shadow="0">
      <root>
        <mxCell id="0" />
        <mxCell id="1" parent="0" />
        <mxCell id="N7Nwk6xlZyjJxe_G_Ynt-1" value="Colaborador" style="whiteSpace=wrap;html=1;align=center;" vertex="1" parent="1">
          <mxGeometry x="110" y="160" width="100" height="40" as="geometry" />
        </mxCell>
        <mxCell id="N7Nwk6xlZyjJxe_G_Ynt-2" value="O.S." style="whiteSpace=wrap;html=1;align=center;" vertex="1" parent="1">
          <mxGeometry x="240" y="300" width="100" height="40" as="geometry" />
        </mxCell>
        <mxCell id="N7Nwk6xlZyjJxe_G_Ynt-3" value="Comentario" style="whiteSpace=wrap;html=1;align=center;" vertex="1" parent="1">
          <mxGeometry x="620" y="160" width="100" height="40" as="geometry" />
        </mxCell>
      </root>
    </mxGraphModel>
  </diagram>
</mxfile>
